<svg xmlns="http://www.w3.org/2000/svg" width="89" height="55.501" viewBox="0 0 89 55.501">
  <g id="그룹_67" data-name="그룹 67" transform="translate(-410 -18)">
    <text id="Title_TAG:H6_" data-name="Title [TAG:H6]" transform="translate(410 44)" fill="#fff" font-size="24" font-family="NotoSans-ExtraBold, Noto Sans" font-weight="800" letter-spacing="0.2em"><tspan x="0" y="0">HOWF</tspan></text>
    <path id="FontAwsome_map-pin_" data-name="FontAwsome (map-pin)" d="M10.059,0A10.059,10.059,0,1,0,20.117,10.059,10.058,10.058,0,0,0,10.059,0Zm0,5.309a4.755,4.755,0,0,0-4.75,4.75.838.838,0,1,1-1.676,0,6.434,6.434,0,0,1,6.426-6.426.838.838,0,1,1,0,1.676Z" transform="translate(434 25.384)" fill="#54aca8"/>
    <path id="FontAwsome_map-pin_2" data-name="FontAwsome (map-pin)" d="M9.9,23.8A143.287,143.287,0,0,0,8.639,42.021l.219,13.8,1.021,3.526c.332.76,1.063.76,1.395,0,0,0,1.153,1.539,1.537-3.526.241-3.171-1.067-22.65-1.067-22.65L10.7,24.812c-.726.205.388-.773-.376-.773S10.624,24.01,9.9,23.8Z" transform="matrix(0.545, 0.839, -0.839, 0.545, 488.54, 30.097)" fill="#9cbf53"/>
    <path id="FontAwsome_map-pin_3" data-name="FontAwsome (map-pin)" d="M8.341,23.174,8.73,35.44l.287,9.028,1.333,2.306a1.3,1.3,0,0,0,1.822,0s1.506,1.006,2.008-2.306c.314-2.074-.347-15.75-.347-15.75L13.5,23.174a20.812,20.812,0,0,1-2.92.214A12.271,12.271,0,0,1,8.341,23.174Z" transform="matrix(1, 0.017, -0.017, 1, 433.227, 25.168)" fill="#de8889"/>
  </g>
</svg>
